# xmcd
#
# Track frame offsets: 
#        150
#        12041
#        30474
#        46093
#        61450
#        76227
#        93220
#        109586
#        125965
#        141600
#        156412
#        176921
#        190117
#        213810
#        229207
#        233111
#        251865
#        272572
#        291704
#
# Disc length: 4165 seconds
#
# Revision: 0
# Processed by: cddbd v1.5.2PL0 Copyright (c) Steve Scherf et al.
# Submitted via: ExactAudioCopy v0.95a4
#
DISCID=15104313
DTITLE=Martina McBride - Greatest Hits
DYEAR=2001
DGENRE=Country
TTITLE0=My Baby Loves Me
TTITLE1=Life #9
TTITLE2=Independence Day
TTITLE3=Strangers
TTITLE4=Safe In The Arms Of Love
TTITLE5=Wild Angels
TTITLE6=Valentine (with Jim Brickman)
TTITLE7=A Broken Wing
TTITLE8=Happy Girl
TTITLE9=Wrong Again
TTITLE10=Whatever You Say
TTITLE11=I Love You
TTITLE12=Love's The Only House
TTITLE13=There You Are
TTITLE14=When God-Fearin' Women Get The Blues (intro)
TTITLE15=When God-Fearin' Women Get The Blues
TTITLE16=Where Would You Be
TTITLE17=Concrete Angel
TTITLE18=Blessed
EXTD=
EXTT0=
EXTT1=
EXTT2=
EXTT3=
EXTT4=
EXTT5=
EXTT6=
EXTT7=
EXTT8=
EXTT9=
EXTT10=
EXTT11=
EXTT12=
EXTT13=
EXTT14=
EXTT15=
EXTT16=
EXTT17=
EXTT18=
PLAYORDER=
